<?xml version="1.0" encoding="UTF-8" standalone="no"?>
<svg
   xmlns:dc="http://purl.org/dc/elements/1.1/"
   xmlns:cc="http://creativecommons.org/ns#"
   xmlns:rdf="http://www.w3.org/1999/02/22-rdf-syntax-ns#"
   xmlns:svg="http://www.w3.org/2000/svg"
   xmlns="http://www.w3.org/2000/svg"
   xmlns:sodipodi="http://sodipodi.sourceforge.net/DTD/sodipodi-0.dtd"
   xmlns:inkscape="http://www.inkscape.org/namespaces/inkscape"
   width="240.97256mm"
   height="229.71101mm"
   viewBox="0 0 240.97256 229.71101"
   version="1.1"
   id="svg8"
   sodipodi:docname="gromacs_tutorials.svg"
   inkscape:version="0.92.3 (2405546, 2018-03-11)"
   inkscape:export-filename="/home/cblau/Downloads/gromacs_tutorials.png"
   inkscape:export-xdpi="99"
   inkscape:export-ydpi="99">
  <sodipodi:namedview
     pagecolor="#ffffff"
     bordercolor="#666666"
     borderopacity="1"
     objecttolerance="10"
     gridtolerance="10"
     guidetolerance="10"
     inkscape:pageopacity="0"
     inkscape:pageshadow="2"
     inkscape:window-width="1920"
     inkscape:window-height="1053"
     id="namedview7"
     showgrid="false"
     inkscape:zoom="0.26496776"
     inkscape:cx="516.84629"
     inkscape:cy="369.82384"
     inkscape:window-x="0"
     inkscape:window-y="27"
     inkscape:window-maximized="1"
     inkscape:current-layer="svg8"
     fit-margin-top="0"
     fit-margin-left="0"
     fit-margin-right="0"
     fit-margin-bottom="0" />
  <defs
     id="defs2">
    <inkscape:path-effect
       effect="sketch"
       id="path-effect1808"
       is_visible="true"
       nbiter_approxstrokes="5"
       strokelength="100"
       strokelength_rdm="0.3;1"
       strokeoverlap="0.3"
       strokeoverlap_rdm="0.3;1"
       ends_tolerance="0.1;1"
       parallel_offset="5;1"
       tremble_size="5;1"
       tremble_frequency="1"
       nbtangents="5"
       tgt_places_rdmness="1;1"
       tgtscale="10"
       tgtlength="100"
       tgtlength_rdm="0.3;1" />
  </defs>
  <metadata
     id="metadata5">
    <rdf:RDF>
      <cc:Work
         rdf:about="">
        <dc:format>image/svg+xml</dc:format>
        <dc:type
           rdf:resource="http://purl.org/dc/dcmitype/StillImage" />
        <dc:title></dc:title>
      </cc:Work>
    </rdf:RDF>
  </metadata>
  <g
     id="g1558"
     transform="matrix(-2.4898754,0,0,2.4898754,550.51299,-124.94707)">
    <path
       inkscape:connector-curvature="0"
       id="path14684"
       d="m 125.32798,110.20009 c 6.25836,10.52919 12.86383,20.84736 19.12219,31.37655 10.06609,-4.95596 20.45975,-9.25202 31.10723,-12.79301 6.91895,2.32824 12.51421,-4.52662 19.41793,-4.14884 8.45901,-1.16446 16.9264,-2.2849 25.42495,-3.12298 0.72197,-7.32134 -8.53743,-8.92576 -12.53438,-13.4331 -7.21428,-5.36495 -14.41305,-10.751047 -21.6701,-16.058172 -20.37484,5.771782 -40.49302,12.407772 -60.86782,18.179552 z"
       style="fill:#001873;fill-opacity:1;fill-rule:evenodd;stroke:#fefefe;stroke-width:1.32291663;stroke-linecap:butt;stroke-linejoin:miter;stroke-miterlimit:4;stroke-opacity:1" />
    <path
       inkscape:connector-curvature="0"
       id="path14685"
       d="m 127.88658,110.60408 c 5.92519,9.42643 11.85037,18.85287 17.77556,28.2793 9.91536,-4.91931 19.65097,-12.45812 31.29047,-11.7299 2.65261,-2.63048 5.86225,-9.08499 -0.66056,-7.54154 -9.87489,-0.39255 -18.1168,5.70668 -26.67907,9.52692 -4.71623,0.18344 -4.35008,13.33284 -3.38953,5.1841 -1.3774,-9.18363 -9.03088,-15.9162 -13.07772,-24.09428 -2.43314,-4.88065 -4.48689,-6.80459 -5.25915,0.3754 z"
       style="fill:#ffffff;fill-opacity:1;fill-rule:evenodd;stroke:#001873;stroke-width:0.9921875;stroke-linecap:butt;stroke-linejoin:miter;stroke-miterlimit:4;stroke-opacity:1" />
    <path
       inkscape:connector-curvature="0"
       id="path14686"
       d="m 179.86663,123.26243 c 2.66206,-7.22368 10.55705,-10.15343 17.6893,-10.27806 6.84616,0.21766 20.70457,-4.85411 17.05881,6.50771 -8.14859,0.55343 -17.27073,-1.15075 -24.9262,2.7355 -2.34486,2.94381 -4.73972,2.73038 -6.4217,0.4256 -1.15218,0.11507 -2.2295,0.61892 -3.40021,0.60925 z"
       style="fill:#ffffff;fill-opacity:1;fill-rule:evenodd;stroke:#001873;stroke-width:0.9921875;stroke-linecap:butt;stroke-linejoin:miter;stroke-miterlimit:4;stroke-opacity:1" />
    <path
       inkscape:connector-curvature="0"
       id="path14687"
       d="m 160.20578,100.36967 c 6.73317,6.50872 13.46633,13.01745 20.1995,19.52618 -11.62929,-1.88637 -22.33901,4.52222 -31.81841,10.34533 -7.19646,-0.82714 -7.94658,-11.13916 -12.74399,-15.72724 -3.38795,-4.39321 -8.22543,-10.82039 0.0648,-12.72788 6.64332,-4.723547 16.76784,-8.750503 23.49949,-2.0099 z"
       style="fill:#ffffff;fill-opacity:1;fill-rule:evenodd;stroke:#001873;stroke-width:0.66145831;stroke-linecap:butt;stroke-linejoin:miter;stroke-miterlimit:4;stroke-opacity:1" />
    <path
       inkscape:connector-curvature="0"
       id="path950"
       d="m 181.37612,120.22928 c 5.63106,-8.77636 17.30682,-7.25081 26.29917,-8.1952 3.95142,0.6582 8.57477,-0.87913 2.53244,-3.2388 -7.9283,-5.39339 -15.85659,-10.786795 -23.78488,-16.180192 -8.02036,2.467089 -22.0643,-2.924864 -25.81093,6.683538 2.62619,6.023234 9.5171,8.845884 13.47622,14.021274 2.42933,2.30313 4.85866,4.60625 7.28798,6.90938 z"
       style="fill:#ffffff;fill-opacity:1;fill-rule:evenodd;stroke:#001873;stroke-width:0.66145831;stroke-linecap:butt;stroke-linejoin:miter;stroke-miterlimit:4;stroke-opacity:1" />
  </g>
  <path
     style="color:#000000;overflow:visible;opacity:0.48800001;vector-effect:none;fill:#ff0000;fill-opacity:1;fill-rule:evenodd;stroke:none;stroke-width:7.78545475;stroke-linecap:butt;stroke-linejoin:miter;stroke-miterlimit:4;stroke-dasharray:2.75862578, 2.75862578;stroke-dashoffset:0;stroke-opacity:1"
     d=""
     id="path1746"
     inkscape:connector-curvature="0" />
  <path
     style="color:#000000;overflow:visible;opacity:0.48800001;vector-effect:none;fill:#ff0000;fill-opacity:1;fill-rule:evenodd;stroke:none;stroke-width:7.78545475;stroke-linecap:butt;stroke-linejoin:miter;stroke-miterlimit:4;stroke-dasharray:2.75862578, 2.75862578;stroke-dashoffset:0;stroke-opacity:1"
     d=""
     id="path1748"
     inkscape:connector-curvature="0" />
  <path
     style="color:#000000;overflow:visible;opacity:0.48800001;vector-effect:none;fill:#ff0000;fill-opacity:1;fill-rule:evenodd;stroke:none;stroke-width:7.78545475;stroke-linecap:butt;stroke-linejoin:miter;stroke-miterlimit:4;stroke-dasharray:2.75862578, 2.75862578;stroke-dashoffset:0;stroke-opacity:1"
     d=""
     id="path1750"
     inkscape:connector-curvature="0" />
  <path
     style="color:#000000;overflow:visible;opacity:0.48800001;vector-effect:none;fill:#ff0000;fill-opacity:1;fill-rule:evenodd;stroke:none;stroke-width:7.78545475;stroke-linecap:butt;stroke-linejoin:miter;stroke-miterlimit:4;stroke-dasharray:2.75862578, 2.75862578;stroke-dashoffset:0;stroke-opacity:1"
     d=""
     id="path1752"
     inkscape:connector-curvature="0" />
  <path
     style="color:#000000;overflow:visible;opacity:0.48800001;vector-effect:none;fill:#ff0000;fill-opacity:1;fill-rule:evenodd;stroke:none;stroke-width:7.78545475;stroke-linecap:butt;stroke-linejoin:miter;stroke-miterlimit:4;stroke-dasharray:2.75862578, 2.75862578;stroke-dashoffset:0;stroke-opacity:1"
     d=""
     id="path1754"
     inkscape:connector-curvature="0" />
  <g
     id="g1863"
     transform="matrix(1.0965749,0,0,1.0965749,-100.71595,54.971256)">
    <g
       transform="translate(198.39384,68.490989)"
       id="g1833">
      <g
         id="g1758"
         transform="matrix(0.21352117,-0.05721282,0.05721282,0.21352117,53.680747,-38.696185)"
         style="fill:#001873;fill-opacity:1;stroke-width:4.52379417">
        <path
           inkscape:connector-curvature="0"
           id="path1756"
           d="m -466.30976,-2.2493145 c 2.63653,-18.0729505 29.43289,-16.7266905 43.36115,-23.3272505 51.59046,-15.88365 102.85942,-33.43296 151.79258,-56.59268 1.28884,-27.260935 -7.26812,-52.394515 -10.00206,-76.938995 -3.21994,-22.31652 -1.58442,-42.84842 -7.21864,-65.74384 -14.24433,-15.5188 -17.48583,-36.64563 -27.06208,-52.58755 -9.28284,-11.54379 -7.77278,-23.68535 -20.34582,-33.9725 -10.50331,-19.56794 -15.9358,-39.36108 -30.25204,-58.07882 -5.28687,-13.58138 -13.18701,-25.03857 -17.79397,-38.38821 -10.92975,-12.85479 -14.41011,-27.88716 -25.04136,-41.79998 3.91868,-6.22447 -20.97319,-30.27666 -0.94852,-27.22683 6.49538,1.17479 24.90583,19.16558 20.08548,5.14939 4.1307,-12.42534 19.90301,1.94675 28.17569,4.9216 48.17656,31.14724 96.96776,62.34603 137.74092,103.68305 38.56078,36.74996 75.89996,75.29905 108.8751,117.08433 10.2029,26.22398 4.27863,56.7095 11.06719,84.18628 -1.56999,23.03708 14.376815,36.23123 36.019665,36.5125 17.93112,4.10681 36.49061,8.2202 50.04928,22.04868 15.7342605,2.49319 22.8790805,45.169215 12.8370605,33.492265 -10.2019605,-20.24749 -16.3712105,15.89456 -28.4964705,17.83072 -13.79092,9.09989 -36.80548,20.56993 -26.63626,40.39923 7.16678,28.60792 22.84828,56.58719 22.32912,86.07777 -9.19352,58.076795 -28.71425,113.490795 -44.58398,170.055785 -11.58702,39.19242 -32.219455,74.73073 -47.220135,112.34303 -8.16335,13.39014 -12.43968,29.55582 -22.99224,41.58364 -16.29459,-5.99364 -2.48776,-27.60124 -16.31773,-2.25714 -19.39756,20.6119 -6.07044,-25.09659 -16.65408,-32.45157 -6.36351,-10.04669 2.47478,-22.79989 -7.57565,-32.40454 1.65317,-19.21677 -3.67203,-37.19627 -4.85155,-56.65921 -4.19321,-21.63807 -0.22703,-42.34736 -6.06087,-63.47862 5.54841,-20.93801 -3.24288,-44.91387 -3.29303,-67.12581 2.11578,-25.73007 -4.45017,-49.880325 -14.76291,-71.056965 -7.00429,-16.60457 -10.91806,-31.89087 -20.68403,-47.40038 -8.2406,-23.4707895 -29.80002,-13.55565 -51.52104,-11.33465 -35.29295,5.66692 -71.9495,3.26488 -107.32735,12.38271 -19.89016,1.97319 -43.88585,15.39759 -61.68891,1.1302 -2.88369,-9.85189 1.20702,-20.2489995 -3.00251,-30.0556395 z m 4.21446,5.43592 c 0.47657,21.6471995 8.66317,35.8221695 5.62581,7.0931895 -4.16859,-5.1537695 -5.22374,-26.47933 -5.62581,-7.0931895 z m 29.42946,-6.84703 c 13.79925,9.27025 7.48501,-28.7154305 0.21151,-3.84182 0.009,1.43346 -2.37772,1.87082 -0.21151,3.84182 z m 1.74717,25.0472195 c 19.17019,20.6537 10.79103,-24.8312295 0,0 z m 22.76118,-36.69672 c 9.41166,28.25233 23.30543,-29.12631 1.69376,-7.42378 -2.87931,-0.19471 0.7794,10.92574 -1.69376,7.42378 z m 5.49117,31.05228 c 13.61878,23.04233 13.08091,-23.2393295 0,0 z m 25.39149,-32.80834 c 16.71539,16.81258049 38.78177,-16.91853 56.54584,-23.9498 43.08653,-24.13938 -25.58188,-3.41339 -42.83456,4.11349 -14.82811,-0.0562 -15.85102,7.2444 -13.71128,19.83631 z m 5.30864,29.28056 c 8.52852,3.20613 62.93254,-1.73275 25.91026,-5.7061495 -6.93068,-3.4363 -28.67817,-6.70465001 -25.91026,5.7061495 z m 4.81415,-429.897975 c 14.07409,4.37704 -2.42564,22.95895 15.01468,26.75948 2.45428,15.86657 7.50749,35.35989 21.54176,41.57957 7.40677,14.58964 6.79434,31.72391 22.68145,41.49975 4.10419,6.99571 12.39517,25.25946 14.26068,33.51543 7.77155,14.87772 11.8253,19.37844 18.66,35.16061 2.54521,7.63119 11.89193,25.69117 9.72414,34.95386 3.4163,18.10469 -4.31139,36.83499 6.48409,50.52476 -3.82615,17.5896 2.80551,29.49376 0.33765,47.35942 6.80556,11.504135 -12.14255,29.061545 14.3449,14.092305 32.03904,-15.965295 68.25145,-21.230105 100.64459,-36.140245 25.65393,-14.32367 18.74287,-47.98875 24.17377,-72.41528 3.41685,-26.34571 -1.30323,-54.82183 -23.38077,-71.85985 -36.03022,-38.08619 -78.84067,-68.30174 -118.39162,-102.6019 -24.61436,-19.84591 -50.95418,-36.91839 -80.22774,-49.15565 -8.99837,-7.43708 -29.49656,-11.13161 -25.86758,6.72774 z m 88.91121,423.7555855 c 52.5378,-2.86275 104.91384,-10.59244 156.81928,-17.7459105 26.070825,-4.46594 51.012505,-15.27941 70.685805,-33.30907 12.22566,-7.04607 24.17057,-17.20731 30.97758,-28.55362 -16.14113,-13.90111 -39.13993,-1.27105 -52.0729,-15.95914 13.93496,-18.170945 -2.82997,-39.349355 -15.82261,-14.738025 -4.89748,18.387865 -16.661385,-37.46795 -38.709905,-14.37358 -51.33335,6.11743 -101.09358,25.974405 -143.85236,54.864495 -28.78017,17.89377 -64.41842,29.42959 -84.54418,57.2352505 11.80913,20.1290715 59.31036,12.1872625 76.51929,12.5796 z m 42.32011,7.3771095 c 6.86735,11.33819 14.60381,24.99975 21.15246,32.71686 2.83322,18.65429 17.65422,19.65355 12.99835,41.9306 16.41456,10.63394 10.04381,30.714975 9.13724,45.649765 13.49625,8.59398 -7.22667,22.58082 2.97563,34.48402 6.39143,9.06896 -3.26861,19.76577 0.41071,33.07292 3.28522,8.18592 9.97651,27.01464 3.35355,36.80507 11.26884,14.85906 -1.92219,27.02153 8.10636,43.61129 -3.73822,17.93699 7.17576,31.28995 5.388,51.19691 12.61378,11.90551 28.39005,-8.40788 34.83396,-19.91487 12.64494,-19.16872 21.79849,-41.48987 34.68321,-59.84007 14.848405,-34.58234 32.552935,-69.898 42.575105,-107.00709 7.45656,-27.00047 20.69245,-54.188415 17.24308,-82.760785 -8.69189,-18.96485 -19.778,-39.44138 -36.31802,-51.74072 C -130.92354,0.81338549 -183.60837,11.599995 -235.63676,9.9504855 l -0.28423,3.4971995 z M -57.792905,-113.85687 c -5.84876,18.951755 30.9524,21.144755 19.72026,6.037 -8.69507,24.119425 -19.51229,-21.55305 -19.72026,-6.037 z m 22.30047,25.989485 c 14.48859,19.4456 38.6364705,-6.48212 18.57031,-7.22875 -3.16084,7.60741 -29.85409,1.53051 -18.57031,7.22875 z m 19.58062,-4.69304 c 5.06521,-4.62374 -0.12307,10.73563 0,0 z m -13.89675,10.17485 c 1.31936,-0.54172 -1.89165,-0.85248 0,0 z"
           style="fill:#001873;fill-opacity:1;stroke-width:4.52379417" />
      </g>
      <path
         style="color:#000000;overflow:visible;opacity:1;vector-effect:none;fill:#ffffff;fill-opacity:1;fill-rule:evenodd;stroke:none;stroke-width:85.39686584;stroke-linecap:butt;stroke-linejoin:miter;stroke-miterlimit:4;stroke-dasharray:30.25873385, 30.25873385;stroke-dashoffset:0;stroke-opacity:1"
         d="m 137.92756,157.58812 c -2.05206,-2.83526 -6.47114,-12.5005 -20.54926,-44.94461 -2.32536,-5.35898 -4.22793,-11.43414 -4.22793,-13.500363 0,-2.066225 -1.76315,-6.087863 -3.91811,-8.936972 C 107.0773,87.357063 105.23848,82.023741 105.146,78.354344 105.0535,74.684947 102.01924,66.87914 98.403166,61.008105 94.787097,55.13707 91.822342,47.260565 91.814822,43.504762 91.80735,39.748957 90.038004,34.344937 87.883044,31.495828 85.728086,28.646716 83.926745,21.959319 83.880065,16.634945 83.833391,11.310567 82.149588,5.5885287 80.138292,3.9193001 78.126993,2.2500716 75.799464,-4.1997858 74.966001,-10.413716 c -1.013167,-7.553721 -3.781146,-13.246978 -8.352032,-17.178687 -3.760155,-3.234351 -6.836644,-7.747586 -6.836644,-10.029417 0,-2.281831 -9.554538,-14.048145 -21.232306,-26.147363 l -21.232306,-21.99858 31.239751,-9.998505 c 38.426534,-12.298682 58.954146,-17.815072 77.580586,-20.848222 17.59271,-2.86483 24.00277,-0.009 42.76663,19.05312 16.48432,16.746382 17.6436,22.613516 15.46715,78.279371 -1.85055,47.330467 -6.80352,81.614292 -18.15047,125.635379 -11.22117,43.53309 -21.01926,61.27872 -28.2888,51.23474 z"
         id="path1828"
         inkscape:connector-curvature="0"
         transform="scale(0.26458333)" />
    </g>
    <path
       transform="scale(0.26458333)"
       inkscape:connector-curvature="0"
       id="path1835"
       d="m 673.95362,187.96141 c -9.30371,-2.22419 -9.38837,-4.49202 -0.6565,-17.58497 6.78427,-10.17264 66.66768,-70.807952 84.16836,-85.225191 13.72795,-11.309235 35.29786,-24.982351 53.03946,-33.621596 8.99002,-4.377678 16.34549,-8.497731 16.34549,-9.155673 0,-0.657942 1.7676,-2.110317 3.92799,-3.2275 5.0593,-2.616265 8.90116,-1.22021 18.58796,6.754503 3.98734,3.282603 7.88033,5.758167 8.65108,5.501251 0.77075,-0.256915 1.92821,-2.52784 2.57215,-5.0465 1.26904,-4.963658 5.74436,-10.583849 8.42783,-10.583849 0.91963,0 2.97962,1.651229 4.57774,3.669397 2.41824,3.053849 2.78761,4.832909 2.20189,10.605308 l -0.70377,6.935909 4.80005,1.584163 c 3.91837,1.293177 7.17107,1.14913 17.70807,-0.784213 12.00622,-2.202917 22.69704,-2.013958 22.62299,0.39986 -0.16145,5.262116 -16.38671,28.079468 -31.32782,44.055851 -15.25308,16.31 -24.35917,21.52483 -72.34758,41.43169 -57.54246,23.87013 -106.32613,40.96191 -126.04923,44.16244 -9.39658,1.5248 -10.66657,1.53471 -16.54616,0.12916 z"
       style="color:#000000;overflow:visible;opacity:1;vector-effect:none;fill:#ffffff;fill-opacity:1;fill-rule:evenodd;stroke:none;stroke-width:42.69843292;stroke-linecap:butt;stroke-linejoin:miter;stroke-miterlimit:4;stroke-dasharray:15.12936694, 15.12936694;stroke-dashoffset:0;stroke-opacity:1" />
    <path
       transform="scale(0.26458333)"
       inkscape:connector-curvature="0"
       id="path1837"
       d="m 725.44165,94.242721 c 0,-3.224946 -3.65899,-15.059297 -9.50448,-30.740524 -2.11134,-5.663894 -3.83878,-11.700185 -3.83878,-13.41398 0,-1.713795 -1.77336,-5.527393 -3.94081,-8.474652 -2.25124,-3.061224 -5.15592,-9.895763 -6.77499,-15.941207 -4.12768,-15.412293 -8.17017,-27.4564677 -10.49361,-31.2645809 -4.51797,-7.4049361 -14.62377,-19.9655881 -24.77196,-30.7894501 -5.90012,-6.292947 -13.76763,-15.599872 -17.48336,-20.682054 -3.71574,-5.082183 -8.81953,-10.548735 -11.34178,-12.147896 -8.69564,-5.513239 -13.11786,-9.920339 -19.16535,-19.099859 -4.67509,-7.096336 -7.37136,-9.785605 -11.75545,-11.724918 -6.84297,-3.02701 -13.3024,-10.08223 -17.99978,-19.66 -2.62583,-5.35396 -4.34232,-7.2476 -7.06279,-7.7917 -2.45248,-0.49049 -4.07855,-2.0129 -5.11981,-4.79343 -0.83924,-2.24106 -2.16693,-5.7981 -2.95041,-7.90454 -0.78348,-2.10644 -2.92444,-4.5133 -4.75768,-5.34858 -4.71458,-2.14811 -3.93396,-8.1266 1.39301,-10.66862 3.45261,-1.64757 5.96033,-1.44993 22.58077,1.77961 32.55233,6.32531 46.44383,11.35091 104.64249,37.85711 57.85713,26.350643 88.01942,42.473352 97.41348,52.070617 6.89918,7.048419 14.27895,22.016779 16.21278,32.884352 8.01387,45.03556 8.43223,52.883332 3.36173,63.058515 -3.93983,7.906216 -11.12999,13.6819 -38.60599,31.011286 -21.04908,13.275851 -32.22681,21.165507 -40.9011,28.869506 -7.37841,6.553075 -9.13613,7.113892 -9.13613,2.914995 z"
       style="color:#000000;overflow:visible;opacity:1;vector-effect:none;fill:#ffffff;fill-opacity:1;fill-rule:evenodd;stroke:none;stroke-width:42.69843292;stroke-linecap:butt;stroke-linejoin:miter;stroke-miterlimit:4;stroke-dasharray:15.12936694, 15.12936694;stroke-dashoffset:0;stroke-opacity:1" />
    <path
       transform="scale(0.26458333)"
       inkscape:connector-curvature="0"
       id="path1839"
       d="m 644.6541,177.97205 c -3.34637,-5.10721 -2.07138,-11.70188 2.72947,-14.1177 2.20164,-1.10788 9.10678,-5.38398 15.34475,-9.50244 15.35744,-10.13935 27.6013,-16.70124 28.84406,-15.45848 0.56413,0.56412 -2.30941,4.46254 -6.38564,8.66316 -4.07623,4.20061 -10.74212,12.21103 -14.81309,17.80093 -4.07096,5.58989 -9.20047,11.44425 -11.39892,13.00968 -5.49169,3.91043 -11.61013,3.7416 -14.32063,-0.39515 z"
       style="color:#000000;overflow:visible;opacity:1;vector-effect:none;fill:#ffffff;fill-opacity:1;fill-rule:evenodd;stroke:none;stroke-width:42.69843292;stroke-linecap:butt;stroke-linejoin:miter;stroke-miterlimit:4;stroke-dasharray:15.12936694, 15.12936694;stroke-dashoffset:0;stroke-opacity:1" />
    <path
       transform="scale(0.26458333)"
       inkscape:connector-curvature="0"
       id="path1841"
       d="m 654.79099,201.58611 c -1.26444,-4.01998 1.72272,-6.78886 9.19216,-8.52047 1.22002,-0.28283 3.06771,-0.39687 7.07634,-0.43676 2.98385,-0.0297 6.31967,-0.18119 7.41293,-0.33667 2.75033,-0.39112 6.75844,-0.44111 7.11155,-0.0887 1.56945,1.56641 -17.84202,8.90283 -27.37982,10.348 -3.12934,0.47416 -2.94386,0.52662 -3.41316,-0.96541 z"
       style="color:#000000;overflow:visible;opacity:1;vector-effect:none;fill:#ffffff;fill-opacity:1;fill-rule:evenodd;stroke:none;stroke-width:7.54808807;stroke-linecap:butt;stroke-linejoin:miter;stroke-miterlimit:4;stroke-dasharray:2.67451949, 2.67451949;stroke-dashoffset:0;stroke-opacity:1" />
    <path
       transform="scale(0.26458333)"
       inkscape:connector-curvature="0"
       id="path1843"
       d="m 636.41134,215.98917 c -1.00271,-0.35524 -2.81193,-1.56265 -4.23728,-2.82781 l -0.90911,-0.80695 0.51638,-1.60491 c 1.12385,-3.49293 2.74196,-5.53418 4.06983,-5.13408 1.51765,0.45728 3.10267,3.13618 3.54451,5.99072 0.2918,1.88517 0.10127,3.11339 -0.60298,3.88716 -0.69496,0.76357 -1.28119,0.88564 -2.38135,0.49587 z"
       style="color:#000000;overflow:visible;opacity:1;vector-effect:none;fill:#ffffff;fill-opacity:1;fill-rule:evenodd;stroke:none;stroke-width:7.54808807;stroke-linecap:butt;stroke-linejoin:miter;stroke-miterlimit:4;stroke-dasharray:2.67451949, 2.67451949;stroke-dashoffset:0;stroke-opacity:1" />
    <path
       transform="scale(0.26458333)"
       inkscape:connector-curvature="0"
       id="path1845"
       d="m 614.5664,225.3332 c -0.71373,-0.22848 -2.06708,-0.81972 -3.00744,-1.31386 -1.98407,-1.0426 -1.99069,-1.06406 -1.21471,-3.93988 0.9201,-3.40991 2.51899,-5.04936 4.33874,-4.44879 1.7692,0.58389 3.99563,3.87124 4.28677,6.32948 0.21702,1.83237 -0.058,2.81672 -0.9366,3.35244 -0.91841,0.55999 -1.76605,0.56503 -3.46676,0.0206 z"
       style="color:#000000;overflow:visible;opacity:1;vector-effect:none;fill:#ffffff;fill-opacity:1;fill-rule:evenodd;stroke:none;stroke-width:7.54808807;stroke-linecap:butt;stroke-linejoin:miter;stroke-miterlimit:4;stroke-dasharray:2.67451949, 2.67451949;stroke-dashoffset:0;stroke-opacity:1" />
    <path
       transform="scale(0.26458333)"
       inkscape:connector-curvature="0"
       id="path1847"
       d="m 603.44107,203.3224 c -1.35975,-0.36204 -1.72891,-0.91641 -1.42083,-2.1337 0.14023,-0.5541 0.30759,-2.01584 0.3719,-3.2483 0.13665,-2.61895 0.66018,-4.54668 1.44899,-5.3355 0.72389,-0.72389 0.86936,-0.70971 1.88716,0.18393 2.16669,1.90238 3.33947,6.68071 2.23627,9.1114 -0.69664,1.53493 -2.25722,2.02557 -4.52349,1.42217 z"
       style="color:#000000;overflow:visible;opacity:1;vector-effect:none;fill:#ffffff;fill-opacity:1;fill-rule:evenodd;stroke:none;stroke-width:7.54808807;stroke-linecap:butt;stroke-linejoin:miter;stroke-miterlimit:4;stroke-dasharray:2.67451949, 2.67451949;stroke-dashoffset:0;stroke-opacity:1" />
    <path
       transform="scale(0.26458333)"
       inkscape:connector-curvature="0"
       id="path1849"
       d="m 624.4998,193.07377 c -1.4019,-0.69859 -4.23186,-3.82995 -3.73746,-4.1355 0.19308,-0.11933 0.0782,-0.69597 -0.40062,-2.01027 -0.36924,-1.01361 -0.78112,-2.33465 -0.91528,-2.93563 -0.21804,-0.97676 -0.18894,-1.16446 0.27427,-1.76908 0.28501,-0.37202 1.16071,-1.55238 1.946,-2.62303 1.55545,-2.12067 2.9116,-3.12473 4.22046,-3.12473 1.19289,0 2.44283,1.44201 3.12156,3.60124 0.73,2.32232 0.78372,8.05574 0.0944,10.07967 -0.60446,1.77487 -1.24718,2.777 -2.04595,3.19007 -0.90682,0.46893 -1.11329,0.44691 -2.55743,-0.27274 z"
       style="color:#000000;overflow:visible;opacity:1;vector-effect:none;fill:#ffffff;fill-opacity:1;fill-rule:evenodd;stroke:none;stroke-width:7.54808807;stroke-linecap:butt;stroke-linejoin:miter;stroke-miterlimit:4;stroke-dasharray:2.67451949, 2.67451949;stroke-dashoffset:0;stroke-opacity:1" />
  </g>
</svg>
